<?xml version="1.0"?>
<svg xmlns="http://www.w3.org/2000/svg" xmlns:xlink="http://www.w3.org/1999/xlink" data-noselect="" viewBox="0 0 1024 1024" width="1024" height="1024" preserveAspectRatio="none" version="1.1" class="svg-canvas"><defs/> <g id="background" data-noselect=""><!----> <!----></g> <g id="shape_EzQ479LFhx" transform="translate(69.4136301917656,13.599999999999909) rotate(0,461.65,461.65) scale(1,1)" filter="" style="opacity: 1;"><g><svg xmlns="http://www.w3.org/2000/svg" xmlns:xlink="http://www.w3.org/1999/xlink" version="1.1" id="&#x56FE;&#x5C42;_1" x="0px" y="0px" width="923.3" height="923.3" viewBox="-1.2642363862787276 -1.2642363862787276 104.52847277255745 104.52847277255745" style="enable-background:new 0 0 102 102;" xml:space="preserve" class="style-removed" preserveAspectRatio="none" data-parent="shape_EzQ479LFhx">
<circle cx="51" cy="51" r="50" fill="#D9D9D9" stroke="#20c0dc" stroke-width="1.1321181931393638" stroke-dasharray=""/>
</svg></g></g><g id="shape_hHmupu3ko8" transform="translate(456.0992656901708,649.1768722776512) rotate(0,168.50466685547178,36.360147644907606) scale(1,1)" filter="" style="opacity: 1;"><g><svg xmlns="http://www.w3.org/2000/svg" xmlns:xlink="http://www.w3.org/1999/xlink" version="1.1" id="&#x56FE;&#x5C42;_1" x="0px" y="0px" width="337.00933371094357" height="72.72029528981521" viewBox="0 0 337.00933371094357 72.72029528981521" style="enable-background:new 0 0 102 102;" xml:space="preserve" class="style-removed" preserveAspectRatio="none" data-parent="shape_hHmupu3ko8">
<g>
	<rect x="0" y="0" width="337.00933371094357" height="72.72029528981521" class="radius-elem" fill="#20c0dc" rx="0" ry="0" stroke-width="0"/>
</g>
</svg></g></g><g id="shape_k6R4qljB7b" transform="translate(177.58906955003295,228.60283243252627) rotate(0,149.1814413746947,246.64716756747012) scale(1,1)" filter="" style="opacity: 1;"><g><svg xmlns="http://www.w3.org/2000/svg" xmlns:xlink="http://www.w3.org/1999/xlink" version="1.1" id="&#x56FE;&#x5C42;_1" x="0px" y="0px" viewBox="0 0 228.131 283.465" style="enable-background:new 0 0 228.131 283.465;" xml:space="preserve" width="298.3628827493894" height="493.29433513494024" class="style-removed" preserveAspectRatio="none" data-parent="shape_k6R4qljB7b">
<g>
	<polygon points="108.173,2.277 2.798,2.277 119.953,141.751 2.798,281.187 108.187,281.187 225.333,141.751     " fill="#20c0dc" stroke-width="0"/>
</g>
</svg></g></g><g id="shape_SG77sx9qPs" transform="translate(594.3144995274835,233.38288847444952) rotate(0,120.35293187044519,120.93355576277517) scale(1,1)" filter="" style="opacity: 1;"><g><svg xmlns="http://www.w3.org/2000/svg" xmlns:xlink="http://www.w3.org/1999/xlink" version="1.1" id="&#x56FE;&#x5C42;_1" x="0px" y="0px" width="240.70586374089038" height="241.86711152555034" viewBox="35.10000228881836 26.200000762939453 145.09999084472656 145.8000030517578" style="enable-background:new 0 0 200 200;" xml:space="preserve" class="style-removed" preserveAspectRatio="none" data-parent="shape_SG77sx9qPs">

<path d="M113,26.2c-11.3,0-20.7,8-22.9,18.6c-3.1-7.1-10.3-12.1-18.6-12.1c-11.2,0-20.2,9-20.2,20.2  c0,11.2,9,20.2,20.2,20.2c1.6,0,39.8,0,41.5,0c13,0,23.5-10.5,23.5-23.5C136.4,36.7,125.9,26.2,113,26.2z M64.2,52.9  c0-4,3.2-7.2,7.2-7.2c4,0,7.2,3.2,7.2,7.2c0,4-3.2,7.2-7.2,7.2C67.5,60.1,64.2,56.9,64.2,52.9z M112.4,58.4c-4.6,0-8.3-3.7-8.3-8.3  c0-4.6,3.7-8.3,8.3-8.3c4.6,0,8.3,3.7,8.3,8.3C120.6,54.7,116.9,58.4,112.4,58.4z" fill="#20DC29" stroke-width="0"/>
<g>
	<path d="M122.1,172H42.7c-4.2,0-7.6-3.4-7.6-7.6v0c0-4.2,3.4-7.6,7.6-7.6h79.4c5.4,0,9.8-4.4,9.8-9.8v-42.6   c0-5.4-4.4-9.8-9.8-9.8H42.7c-4.2,0-7.6-3.4-7.6-7.6v0c0-4.2,3.4-7.6,7.6-7.6h79.4c13.8,0,25,11.2,25,25V147   C147,160.8,135.9,172,122.1,172z" fill="#20DC29" stroke-width="0"/>
</g>
<path d="M137.1,127.4l40.4,20.9c1.3,0.6,2.7-0.3,2.7-1.7v-41.8c0-1.4-1.5-2.3-2.7-1.7L137.1,124  C135.7,124.7,135.7,126.7,137.1,127.4z" fill="#20DC29" stroke-width="0"/>
</svg></g></g></svg>
